<?xml version="1.0" encoding="UTF-8"?> <!-- Generator: Adobe Illustrator 23.0.6, SVG Export Plug-In . SVG Version: 6.00 Build 0) --> <svg xmlns="http://www.w3.org/2000/svg" xmlns:xlink="http://www.w3.org/1999/xlink" id="Layer_1" x="0px" y="0px" viewBox="0 0 250 43" style="enable-background:new 0 0 250 43;" xml:space="preserve"> <style type="text/css"> .st0{fill:#323A5A;} .st1{fill:#00E77B;} </style> <g> <path class="st0" d="M71.5,34c-2.4-2.3-3.5-5.2-3.5-8.9c-0.1-1.7,0.2-3.3,0.8-4.8c0.6-1.5,1.5-2.9,2.7-4.1c1.1-1.1,2.5-2,4-2.7 c1.5-0.6,3.1-0.9,4.8-0.9c4.3,0,8.2,2,10.3,4.9l-3.2,3.2c-1.9-2.3-4.2-3.5-6.8-3.5c-1,0-2,0.2-3,0.5c-1,0.4-1.8,1-2.5,1.7 S73.8,21,73.4,22c-0.4,1-0.5,2-0.5,3c-0.1,1,0.1,2,0.5,3s1,1.8,1.7,2.5s1.5,1.3,2.5,1.7c1,0.4,2,0.5,3,0.5c1.4,0,2.7-0.3,3.9-0.9 c1.2-0.6,2.3-1.5,3-2.6l3.3,3c-1.2,1.6-2.9,2.9-4.7,3.8c-1.8,0.9-3.9,1.3-5.9,1.3c-1.6,0.1-3.2-0.2-4.7-0.8 C74,36,72.6,35.2,71.5,34z"></path> <path class="st0" d="M97.2,37h-4.6V12.4h4.6V37z"></path> <path class="st0" d="M117.4,29.9h-13.2c0.7,2.5,2.4,3.8,5.1,3.8c2-0.1,4-0.7,5.7-1.8l1.8,3.2c-2.3,1.6-4.9,2.5-7.7,2.4 c-3.1,0-5.5-0.9-7.1-2.7c-1.7-1.8-2.5-4.1-2.4-6.5c-0.1-1.3,0.2-2.4,0.6-3.6s1.1-2.2,2-3c1.7-1.7,4-2.6,6.4-2.6 c2.4-0.1,4.7,0.8,6.5,2.4c1.7,1.6,2.5,3.8,2.5,6.5C117.6,28.5,117.5,29.2,117.4,29.9z M104.2,26.5h9c-0.1-1.1-0.7-2-1.5-2.7 s-1.8-1-2.9-1s-2.1,0.3-3,1C105,24.5,104.4,25.4,104.2,26.5L104.2,26.5z"></path> <path class="st0" d="M133.3,19.4h4.3V37h-4.3v-2c-0.7,0.8-1.5,1.4-2.6,1.8c-1,0.4-2,0.7-3.1,0.6c-1.2,0.1-2.3-0.2-3.4-0.7 s-2.1-1.1-2.9-2c-1.7-1.8-2.6-4.2-2.4-6.7c-0.1-1.2,0.2-2.4,0.6-3.5s1.1-2.1,1.9-3c0.8-0.8,1.8-1.5,2.9-2s2.3-0.7,3.4-0.7 c1.1,0,2.1,0.2,3.1,0.7c1,0.4,1.8,1.1,2.6,1.9L133.3,19.4L133.3,19.4z M132,24.7c-0.5-0.5-1-0.8-1.6-1.1c-0.6-0.2-1.2-0.4-1.9-0.4 s-1.3,0.1-1.9,0.4c-0.6,0.2-1.2,0.7-1.6,1.1c-0.9,1-1.4,2.3-1.4,3.6c-0.1,1.4,0.5,2.7,1.4,3.6c0.5,0.5,1,0.8,1.6,1.1 c0.6,0.2,1.2,0.4,1.9,0.4c0.7,0,1.3-0.1,1.9-0.4c0.6-0.2,1.1-0.7,1.6-1.1c0.9-1,1.4-2.3,1.4-3.6C133.4,26.9,132.9,25.7,132,24.7 L132,24.7z"></path> <path class="st0" d="M141,37V19.4h4.5v2.5c1-1.7,3-3,5.5-3c1.8-0.1,3.6,0.7,4.9,1.9c1.3,1.3,2,3.1,2,5.4V37h-4.6v-9.5 c0-2.8-1.5-4.3-3.7-4.3c-2.4,0-4,1.8-4,4.5v9.5H141V37z"></path> <path class="st0" d="M163.7,34c-2.4-2.3-3.5-5.2-3.5-8.9c-0.1-1.7,0.2-3.3,0.8-4.8c0.6-1.5,1.5-2.9,2.7-4.1c1.1-1.1,2.5-2,4-2.7 c1.5-0.6,3.1-0.9,4.8-0.9c4.3,0,8.2,2,10.3,4.9l-3.2,3.2c-1.9-2.3-4.2-3.5-6.8-3.5c-1,0-2,0.2-3,0.5s-1.8,1-2.5,1.7 S166,21,165.6,22s-0.5,2-0.5,3c-0.1,1,0.1,2,0.5,3s1,1.8,1.7,2.5s1.5,1.3,2.5,1.7c1,0.4,2,0.5,3,0.5c1.4,0,2.7-0.3,3.9-0.9 s2.3-1.5,3-2.6l3.3,3c-1.2,1.6-2.9,2.9-4.7,3.8c-1.8,0.9-3.9,1.3-5.9,1.3c-1.6,0.1-3.2-0.2-4.7-0.8C166.3,36,164.9,35.2,163.7,34z"></path> <path class="st0" d="M189.4,37h-4.6V12.4h4.6V37z"></path> <path class="st0" d="M194.4,21.7c1.8-1.7,4.3-2.7,6.8-2.7c2.6,0,4.9,1,6.8,2.7c1.7,1.8,2.7,4.1,2.7,6.6c0,2.4-1,4.8-2.7,6.6 c-1.8,1.7-4.3,2.7-6.8,2.7s-4.9-1-6.8-2.7c-1.7-1.8-2.7-4.1-2.7-6.6C191.8,25.8,192.8,23.5,194.4,21.7z M201.3,33.3 c0.7,0,1.3-0.1,1.9-0.4s1.1-0.7,1.5-1.1c1-1,1.4-2.3,1.4-3.6c0-0.7-0.1-1.3-0.4-1.9c-0.2-0.6-0.6-1.2-1.1-1.7 c-0.4-0.5-1-0.8-1.5-1.1c-0.6-0.2-1.2-0.4-1.9-0.4s-1.3,0.1-1.9,0.4c-0.6,0.2-1.1,0.7-1.6,1.1c-0.5,0.5-0.8,1-1.1,1.7 c-0.2,0.7-0.4,1.3-0.4,1.9c0,1.3,0.5,2.6,1.4,3.6c0.5,0.5,1,0.8,1.6,1.1C200,33.2,200.6,33.3,201.3,33.3z"></path> <path class="st0" d="M212.8,29.7V19.4h4.6v10.2c0,2.3,1.3,3.7,3.5,3.7s3.5-1.4,3.5-3.7V19.4h4.6v10.2c0,4.9-3,7.9-8.1,7.9 C215.9,37.5,212.8,34.5,212.8,29.7z"></path> <path class="st0" d="M245.3,12.4h4.6V37h-4.5v-2.1c-0.7,0.8-1.5,1.5-2.4,2c-1,0.5-2,0.7-3,0.7c-1.2,0-2.3-0.2-3.4-0.7s-2-1.1-2.9-2 c-1.6-1.8-2.5-4.2-2.5-6.6s0.9-4.8,2.5-6.6c0.8-0.8,1.8-1.5,2.9-2c1.1-0.5,2.3-0.7,3.4-0.7c1,0,2,0.2,3,0.7c1,0.4,1.7,1.1,2.4,1.8 v-9.1H245.3z M244.1,24.7c-0.4-0.5-1-0.9-1.6-1.1s-1.2-0.4-1.9-0.4s-1.3,0.1-2,0.4c-0.6,0.2-1.2,0.7-1.6,1.1 c-0.9,1-1.4,2.3-1.4,3.6c-0.1,1.4,0.5,2.7,1.4,3.6c0.5,0.5,1,0.8,1.6,1.1c0.6,0.2,1.2,0.4,2,0.4c0.7,0,1.3-0.1,1.9-0.4 c0.6-0.2,1.1-0.7,1.6-1.1c0.9-1,1.4-2.3,1.4-3.6C245.5,26.9,245.1,25.6,244.1,24.7L244.1,24.7z"></path> <path class="st1" d="M42.9,14.4c0-1.8-0.4-3.8-1.1-5.5c-0.7-1.7-1.7-3.3-3.1-4.6c-1.3-1.3-2.9-2.4-4.6-3.1 c-1.7-0.7-3.6-1.1-5.5-1.1c-1.8,0-3.7,0.4-5.5,1.1c-1.7,0.7-3.3,1.8-4.6,3.1c-1.3,1.3-2.4,2.9-3.1,4.6c-0.7,1.7-1.1,3.6-1.1,5.5 c-1.8,0-3.7,0.4-5.5,1.1c-1.7,0.7-3.3,1.7-4.6,3.1c-1.3,1.3-2.4,2.9-3.1,4.6S0,26.8,0,28.7c0,1.8,0.4,3.8,1.1,5.5s1.8,3.3,3.1,4.6 s2.9,2.4,4.6,3.1c1.7,0.7,3.6,1.1,5.5,1.1h14.2c-3.7,0-7.4-1.5-10-4.2s-4.2-6.3-4.2-10.1l0,0c0-3.8,1.5-7.4,4.2-10.1 s6.3-4.2,10-4.2L42.9,14.4c-3.7,0-7.2,1.5-9.8,4c-2.6,2.6-4,6.1-4,9.8s1.5,7.2,4,9.8c2.6,2.6,6.1,4,9.8,4s7.2-1.5,9.8-4 c2.6-2.6,4-6.1,4-9.8s-1.4-7.2-4-9.8C50.1,15.8,46.6,14.4,42.9,14.4L42.9,14.4z"></path> </g> </svg> 